<?xml version="1.0" standalone="no"?><svg xmlns:xlink="http://www.w3.org/1999/xlink" xmlns="http://www.w3.org/2000/svg" viewBox="0 0 1000 1000" preserveAspectRatio="xMaxYMax slice"><g transform="scale(0.999000999000999)"><rect x="0" y="0" width="1001" height="1001" fill="#EBEBEB"/><circle cx="38.5" cy="38.5" r="7.7" fill="#97b49c"/><circle cx="115.5" cy="38.5" r="7.7" fill="#54666e"/><circle cx="192.5" cy="38.5" r="7.7" fill="#485c64"/><circle cx="269.5" cy="38.5" r="7.7" fill="#55676f"/><circle cx="346.5" cy="38.5" r="7.7" fill="#8eae94"/><circle cx="423.5" cy="38.5" r="7.7" fill="#cad5cc"/><circle cx="500.5" cy="38.5" r="7.7" fill="#d4d7d8"/><circle cx="577.5" cy="38.5" r="7.7" fill="#b2b9bb"/><circle cx="654.5" cy="38.5" r="7.7" fill="#85a88b"/><circle cx="731.5" cy="38.5" r="7.7" fill="#a4acb0"/><circle cx="808.5" cy="38.5" r="7.7" fill="#b6c8b9"/><circle cx="885.5" cy="38.5" r="7.7" fill="#4d6068"/><circle cx="962.5" cy="38.5" r="7.7" fill="#9eb8a3"/><circle cx="38.5" cy="115.5" r="7.7" fill="#afb7b9"/><circle cx="115.5" cy="115.5" r="7.7" fill="#4e6169"/><circle cx="192.5" cy="115.5" r="7.7" fill="#dcdede"/><circle cx="269.5" cy="115.5" r="7.7" fill="#729b79"/><circle cx="346.5" cy="115.5" r="7.7" fill="#b1c5b4"/><circle cx="423.5" cy="115.5" r="7.7" fill="#7da283"/><circle cx="500.5" cy="115.5" r="7.7" fill="#566970"/><circle cx="577.5" cy="115.5" r="7.7" fill="#d3dbd5"/><circle cx="654.5" cy="115.5" r="7.7" fill="#d1d4d5"/><circle cx="731.5" cy="115.5" r="7.7" fill="#d1d4d6"/><circle cx="808.5" cy="115.5" r="7.7" fill="#64747b"/><circle cx="885.5" cy="115.5" r="7.7" fill="#ebebeb"/><circle cx="962.5" cy="115.5" r="7.7" fill="#7c898f"/><circle cx="38.5" cy="192.5" r="7.7" fill="#a4bca8"/><circle cx="115.5" cy="192.5" r="7.7" fill="#bbc1c3"/><circle cx="192.5" cy="192.5" r="7.7" fill="#b5c8b9"/><circle cx="269.5" cy="192.5" r="7.7" fill="#919ca0"/><circle cx="346.5" cy="192.5" r="7.7" fill="#c5d2c7"/><circle cx="423.5" cy="192.5" r="7.7" fill="#617279"/><circle cx="500.5" cy="192.5" r="7.7" fill="#52646c"/><circle cx="577.5" cy="192.5" r="7.7" fill="#9fb9a3"/><circle cx="654.5" cy="192.5" r="7.7" fill="#828f94"/><circle cx="731.5" cy="192.5" r="7.7" fill="#52656c"/><circle cx="808.5" cy="192.5" r="7.7" fill="#9aa4a8"/><circle cx="885.5" cy="192.5" r="7.7" fill="#eaeaea"/><circle cx="962.5" cy="192.5" r="7.7" fill="#adc2b0"/><circle cx="38.5" cy="269.5" r="7.7" fill="#607178"/><circle cx="115.5" cy="269.5" r="7.7" fill="#d1dad3"/><circle cx="192.5" cy="269.5" r="7.7" fill="#8bab90"/><circle cx="269.5" cy="269.5" r="7.7" fill="#5e6f76"/><circle cx="346.5" cy="269.5" r="7.7" fill="#a6aeb1"/><circle cx="423.5" cy="269.5" r="7.7" fill="#dde2de"/><circle cx="500.5" cy="269.5" r="7.7" fill="#d3dbd4"/><circle cx="577.5" cy="269.5" r="7.7" fill="#c3d0c5"/><circle cx="654.5" cy="269.5" r="7.7" fill="#869297"/><circle cx="731.5" cy="269.5" r="7.7" fill="#758389"/><circle cx="808.5" cy="269.5" r="7.7" fill="#d7dadb"/><circle cx="885.5" cy="269.5" r="7.7" fill="#e2e4e4"/><circle cx="962.5" cy="269.5" r="7.7" fill="#89959a"/><circle cx="38.5" cy="346.5" r="7.7" fill="#e6e8e6"/><circle cx="115.5" cy="346.5" r="7.7" fill="#949fa3"/><circle cx="192.5" cy="346.5" r="7.7" fill="#80a486"/><circle cx="269.5" cy="346.5" r="7.7" fill="#cccfd1"/><circle cx="346.5" cy="346.5" r="7.7" fill="#abb2b6"/><circle cx="423.5" cy="346.5" r="7.7" fill="#dddfe0"/><circle cx="500.5" cy="346.5" r="7.7" fill="#98b49d"/><circle cx="577.5" cy="346.5" r="7.7" fill="#cbcfd0"/><circle cx="654.5" cy="346.5" r="7.7" fill="#c0cfc3"/><circle cx="731.5" cy="346.5" r="7.7" fill="#c8d4ca"/><circle cx="808.5" cy="346.5" r="7.7" fill="#c0cec2"/><circle cx="885.5" cy="346.5" r="7.7" fill="#a4bca8"/><circle cx="962.5" cy="346.5" r="7.7" fill="#769d7c"/><circle cx="38.5" cy="423.5" r="7.7" fill="#abc1af"/><circle cx="115.5" cy="423.5" r="7.7" fill="#617279"/><circle cx="192.5" cy="423.5" r="7.7" fill="#7da283"/><circle cx="269.5" cy="423.5" r="7.7" fill="#a5bda9"/><circle cx="346.5" cy="423.5" r="7.7" fill="#8f9a9f"/><circle cx="423.5" cy="423.5" r="7.7" fill="#9ab59f"/><circle cx="500.5" cy="423.5" r="7.7" fill="#8eae93"/><circle cx="577.5" cy="423.5" r="7.7" fill="#75848a"/><circle cx="654.5" cy="423.5" r="7.7" fill="#69797f"/><circle cx="731.5" cy="423.5" r="7.7" fill="#7d8b90"/><circle cx="808.5" cy="423.5" r="7.7" fill="#b5c7b8"/><circle cx="885.5" cy="423.5" r="7.7" fill="#7aa081"/><circle cx="962.5" cy="423.5" r="7.7" fill="#6c7c82"/><circle cx="38.5" cy="500.5" r="7.7" fill="#a2baa6"/><circle cx="115.5" cy="500.5" r="7.7" fill="#e1e4e1"/><circle cx="192.5" cy="500.5" r="7.7" fill="#a4adb0"/><circle cx="269.5" cy="500.5" r="7.7" fill="#8ead93"/><circle cx="346.5" cy="500.5" r="7.7" fill="#828f94"/><circle cx="423.5" cy="500.5" r="7.7" fill="#7c898f"/><circle cx="500.5" cy="500.5" r="7.7" fill="#bbc1c3"/><circle cx="577.5" cy="500.5" r="7.7" fill="#87a98c"/><circle cx="654.5" cy="500.5" r="7.7" fill="#aec2b1"/><circle cx="731.5" cy="500.5" r="7.7" fill="#91b096"/><circle cx="808.5" cy="500.5" r="7.7" fill="#e0e4e1"/><circle cx="885.5" cy="500.5" r="7.7" fill="#4f6269"/><circle cx="962.5" cy="500.5" r="7.7" fill="#8f9a9e"/><circle cx="38.5" cy="577.5" r="7.7" fill="#50636b"/><circle cx="115.5" cy="577.5" r="7.7" fill="#a8b0b4"/><circle cx="192.5" cy="577.5" r="7.7" fill="#5a6c73"/><circle cx="269.5" cy="577.5" r="7.7" fill="#e3e6e4"/><circle cx="346.5" cy="577.5" r="7.7" fill="#739c7a"/><circle cx="423.5" cy="577.5" r="7.7" fill="#a0a9ad"/><circle cx="500.5" cy="577.5" r="7.7" fill="#5e7076"/><circle cx="577.5" cy="577.5" r="7.7" fill="#97a1a5"/><circle cx="654.5" cy="577.5" r="7.7" fill="#ccd7ce"/><circle cx="731.5" cy="577.5" r="7.7" fill="#97b49c"/><circle cx="808.5" cy="577.5" r="7.7" fill="#9bb69f"/><circle cx="885.5" cy="577.5" r="7.7" fill="#a1baa6"/><circle cx="962.5" cy="577.5" r="7.7" fill="#b8bec0"/><circle cx="38.5" cy="654.5" r="7.7" fill="#adc2b0"/><circle cx="115.5" cy="654.5" r="7.7" fill="#8aab8f"/><circle cx="192.5" cy="654.5" r="7.7" fill="#dddfdf"/><circle cx="269.5" cy="654.5" r="7.7" fill="#9cb7a1"/><circle cx="346.5" cy="654.5" r="7.7" fill="#c8cdce"/><circle cx="423.5" cy="654.5" r="7.7" fill="#dfe3e0"/><circle cx="500.5" cy="654.5" r="7.7" fill="#b1c4b4"/><circle cx="577.5" cy="654.5" r="7.7" fill="#5e6f76"/><circle cx="654.5" cy="654.5" r="7.7" fill="#abb3b6"/><circle cx="731.5" cy="654.5" r="7.7" fill="#c2c7c9"/><circle cx="808.5" cy="654.5" r="7.7" fill="#85a78b"/><circle cx="885.5" cy="654.5" r="7.7" fill="#b2b9bc"/><circle cx="962.5" cy="654.5" r="7.7" fill="#8bab90"/><circle cx="38.5" cy="731.5" r="7.7" fill="#a9bfad"/><circle cx="115.5" cy="731.5" r="7.7" fill="#7ca283"/><circle cx="192.5" cy="731.5" r="7.7" fill="#8fae95"/><circle cx="269.5" cy="731.5" r="7.7" fill="#9eb8a3"/><circle cx="346.5" cy="731.5" r="7.7" fill="#83a789"/><circle cx="423.5" cy="731.5" r="7.7" fill="#586a71"/><circle cx="500.5" cy="731.5" r="7.7" fill="#729b79"/><circle cx="577.5" cy="731.5" r="7.7" fill="#e6e8e7"/><circle cx="654.5" cy="731.5" r="7.7" fill="#d7ded8"/><circle cx="731.5" cy="731.5" r="7.7" fill="#aab2b5"/><circle cx="808.5" cy="731.5" r="7.7" fill="#bec4c6"/><circle cx="885.5" cy="731.5" r="7.7" fill="#96b39b"/><circle cx="962.5" cy="731.5" r="7.7" fill="#d5dcd6"/><circle cx="38.5" cy="808.5" r="7.7" fill="#b2b9bc"/><circle cx="115.5" cy="808.5" r="7.7" fill="#c1cfc3"/><circle cx="192.5" cy="808.5" r="7.7" fill="#929da2"/><circle cx="269.5" cy="808.5" r="7.7" fill="#90af96"/><circle cx="346.5" cy="808.5" r="7.7" fill="#4a5e66"/><circle cx="423.5" cy="808.5" r="7.7" fill="#86a88c"/><circle cx="500.5" cy="808.5" r="7.7" fill="#95b29a"/><circle cx="577.5" cy="808.5" r="7.7" fill="#99a3a7"/><circle cx="654.5" cy="808.5" r="7.7" fill="#a1baa6"/><circle cx="731.5" cy="808.5" r="7.7" fill="#56686f"/><circle cx="808.5" cy="808.5" r="7.7" fill="#d0d9d1"/><circle cx="885.5" cy="808.5" r="7.7" fill="#96a0a4"/><circle cx="962.5" cy="808.5" r="7.7" fill="#68787e"/><circle cx="38.5" cy="885.5" r="7.7" fill="#4c5f67"/><circle cx="115.5" cy="885.5" r="7.7" fill="#a3bba7"/><circle cx="192.5" cy="885.5" r="7.7" fill="#b8bec0"/><circle cx="269.5" cy="885.5" r="7.7" fill="#b3c6b6"/><circle cx="346.5" cy="885.5" r="7.7" fill="#495d65"/><circle cx="423.5" cy="885.5" r="7.7" fill="#eaeaea"/><circle cx="500.5" cy="885.5" r="7.7" fill="#d9dcdc"/><circle cx="577.5" cy="885.5" r="7.7" fill="#769e7d"/><circle cx="654.5" cy="885.5" r="7.7" fill="#bcc2c4"/><circle cx="731.5" cy="885.5" r="7.7" fill="#ccd0d2"/><circle cx="808.5" cy="885.5" r="7.7" fill="#9ab69f"/><circle cx="885.5" cy="885.5" r="7.7" fill="#c9cdcf"/><circle cx="962.5" cy="885.5" r="7.7" fill="#cfd2d4"/><circle cx="38.5" cy="962.5" r="7.7" fill="#e9e9e9"/><circle cx="115.5" cy="962.5" r="7.7" fill="#729b79"/><circle cx="192.5" cy="962.5" r="7.7" fill="#7fa486"/><circle cx="269.5" cy="962.5" r="7.7" fill="#818e93"/><circle cx="346.5" cy="962.5" r="7.7" fill="#a7beab"/><circle cx="423.5" cy="962.5" r="7.7" fill="#64747b"/><circle cx="500.5" cy="962.5" r="7.7" fill="#aac0ae"/><circle cx="577.5" cy="962.5" r="7.7" fill="#63747a"/><circle cx="654.5" cy="962.5" r="7.7" fill="#ccd0d2"/><circle cx="731.5" cy="962.5" r="7.7" fill="#d1d4d5"/><circle cx="808.5" cy="962.5" r="7.7" fill="#bfc4c6"/><circle cx="885.5" cy="962.5" r="7.7" fill="#8c989c"/><circle cx="962.5" cy="962.5" r="7.7" fill="#b1c4b4"/></g></svg>